<svg xmlns="http://www.w3.org/2000/svg" width="50" height="50" viewBox="0 0 50 50">
  <g id="Group_4" data-name="Group 4" transform="translate(179 -1437)">
    <rect id="Rectangle_3" data-name="Rectangle 3" width="50" height="50" rx="8" transform="translate(-179 1437)"/>
    <g id="Group_1" data-name="Group 1" transform="translate(-151.814 131.196)">
      <path id="Path_8" data-name="Path 8" d="M10.231,6.494a.834.834,0,0,0-1.178,0L3.494,12.052a.834.834,0,0,0,0,1.178l5.558,5.558a.833.833,0,0,0,1.178-1.178L5.262,12.641l4.969-4.969a.834.834,0,0,0,0-1.178Z" transform="translate(-25.249 1318.74)" fill="#fff"/>
      <path id="Path_9" data-name="Path 9" d="M21.231,12.05,15.673,6.492a.834.834,0,0,0-1.178,1.178l4.969,4.969-4.969,4.969a.833.833,0,0,0,1.178,1.178l5.558-5.558a.834.834,0,0,0,0-1.178Z" transform="translate(-3.847 1319.275)" fill="#fff"/>
      <g id="test-tube-7-svgrepo-com" transform="matrix(0.951, -0.309, 0.309, 0.951, -16.388, 1317.539)">
        <path id="Path_3" data-name="Path 3" d="M1.317,0A1.315,1.315,0,1,0,2.631,1.316,1.315,1.315,0,0,0,1.317,0Z" transform="translate(19.133 0)" fill="#fff"/>
        <path id="Path_4" data-name="Path 4" d="M1.547.774a.774.774,0,1,0-.774.773A.773.773,0,0,0,1.547.774Z" transform="translate(19.132 5.493)" fill="#fff"/>
        <path id="Path_5" data-name="Path 5" d="M.926,0A.924.924,0,1,0,1.85.925.923.923,0,0,0,.926,0Z" transform="translate(21.432 3.41)" fill="#fff"/>
        <path id="Path_6" data-name="Path 6" d="M.772,3.913A2.64,2.64,0,0,0,4.506,7.647L12.152,0H4.686Z" transform="translate(1.586 16.73)" fill="#fff"/>
        <path id="Path_7" data-name="Path 7" d="M15.629.468a1.6,1.6,0,0,0-2.688,1.488l-.1.1-11.6,11.6a4.227,4.227,0,0,0,5.978,5.978l11.6-11.6.1-.1a1.6,1.6,0,0,0,1.488-2.688Zm2.583,7.1-3,3L6.678,19.1a3.468,3.468,0,0,1-4.905-4.9l8.491-8.491,3.044-3.043.146-.146.062.064,4.779,4.779c.021.021.042.041.064.062Zm1.659-.6a.84.84,0,0,1-.836.21l-.217-.217-4.9-4.9-.217-.217A.839.839,0,0,1,15.092,1l4.779,4.778A.84.84,0,0,1,19.871,6.971Z" transform="translate(0 5.86)" fill="#fff"/>
      </g>
    </g>
  </g>
</svg>
