<svg width="108" height="22" viewBox="0 0 108 22" fill="none" xmlns="http://www.w3.org/2000/svg">
<path d="M47.7267 20.4878C46.103 20.4878 44.709 20.2008 43.5445 19.6268C42.3801 19.0528 41.4289 18.3066 40.6909 17.3882C39.9692 16.4697 39.4362 15.4693 39.0918 14.3869C38.7474 13.3044 38.5752 12.263 38.5752 11.2626V10.7214C38.5752 9.60613 38.7474 8.50729 39.0918 7.42486C39.4526 6.34243 40.002 5.3584 40.7401 4.47277C41.4781 3.58715 42.4129 2.88193 43.5445 2.35711C44.6926 1.8159 46.0456 1.54529 47.6037 1.54529C49.2273 1.54529 50.6378 1.8405 51.835 2.43091C53.0486 3.00493 54.0163 3.82496 54.7379 4.89099C55.4595 5.94062 55.8941 7.17065 56.0417 8.5811H52.5238C52.3926 7.76107 52.0974 7.07225 51.6382 6.51463C51.1954 5.94062 50.6295 5.5142 49.9407 5.2354C49.2519 4.94019 48.4729 4.79258 47.6037 4.79258C46.718 4.79258 45.9308 4.94839 45.242 5.26C44.5532 5.55521 43.9792 5.98162 43.5199 6.53924C43.0607 7.09685 42.7081 7.75287 42.4621 8.50729C42.2325 9.26172 42.1177 10.0981 42.1177 11.0166C42.1177 11.9022 42.2325 12.7222 42.4621 13.4766C42.7081 14.2311 43.0689 14.8953 43.5445 15.4693C44.0202 16.0269 44.6024 16.4615 45.2912 16.7731C45.9964 17.0847 46.8082 17.2406 47.7267 17.2406C49.0715 17.2406 50.2031 16.9125 51.1216 16.2565C52.0564 15.5841 52.6222 14.6493 52.819 13.452H56.3369C56.1729 14.7313 55.7383 15.9039 55.0331 16.9699C54.3279 18.036 53.3602 18.8888 52.1302 19.5284C50.9002 20.168 49.4323 20.4878 47.7267 20.4878Z" fill="#787882"/>
<path d="M57.9563 20.0204V2.0619H61.3758V20.0204H57.9563ZM56.2835 4.62038V2.0619H61.3758V4.62038H56.2835Z" fill="#787882"/>
<path d="M70.4704 20.4878C69.2896 20.4878 68.2482 20.2992 67.3461 19.922C66.4441 19.5448 65.6815 19.0364 65.0583 18.3968C64.435 17.7408 63.9594 17.0027 63.6314 16.1827C63.3198 15.3627 63.164 14.5099 63.164 13.6242V13.1076C63.164 12.1892 63.328 11.32 63.656 10.5C64.0004 9.66353 64.4842 8.92551 65.1075 8.28589C65.7471 7.62987 66.5179 7.12145 67.4199 6.76064C68.322 6.38343 69.3388 6.19483 70.4704 6.19483C71.6021 6.19483 72.6189 6.38343 73.5209 6.76064C74.4229 7.12145 75.1856 7.62987 75.8088 8.28589C76.4484 8.92551 76.9322 9.66353 77.2602 10.5C77.5882 11.32 77.7522 12.1892 77.7522 13.1076V13.6242C77.7522 14.5099 77.5882 15.3627 77.2602 16.1827C76.9486 17.0027 76.4812 17.7408 75.858 18.3968C75.2348 19.0364 74.4721 19.5448 73.5701 19.922C72.6681 20.2992 71.6349 20.4878 70.4704 20.4878ZM70.4704 17.5604C71.3068 17.5604 72.0121 17.38 72.5861 17.0191C73.1601 16.6419 73.5947 16.1417 73.8899 15.5185C74.1851 14.8789 74.3327 14.1573 74.3327 13.3536C74.3327 12.5336 74.1769 11.812 73.8653 11.1888C73.5701 10.5492 73.1273 10.0489 72.5369 9.68813C71.9629 9.31092 71.274 9.12231 70.4704 9.12231C69.6668 9.12231 68.9698 9.31092 68.3794 9.68813C67.8053 10.0489 67.3625 10.5492 67.0509 11.1888C66.7393 11.812 66.5835 12.5336 66.5835 13.3536C66.5835 14.1573 66.7311 14.8789 67.0263 15.5185C67.3379 16.1417 67.7807 16.6419 68.3548 17.0191C68.9288 17.38 69.634 17.5604 70.4704 17.5604Z" fill="#787882"/>
<path d="M84.0675 20.4386C82.5259 20.4386 81.3286 19.9302 80.4758 18.9134C79.6394 17.8966 79.2212 16.3877 79.2212 14.3869V6.63764H82.6407V14.6821C82.6407 15.5021 82.8703 16.1581 83.3295 16.6501C83.7887 17.1257 84.4119 17.3636 85.1991 17.3636C85.9864 17.3636 86.626 17.1093 87.118 16.6009C87.6264 16.0925 87.8806 15.4037 87.8806 14.5345V6.63764H91.3001V20.0204H88.594V14.3377H88.8646C88.8646 15.6825 88.6924 16.8059 88.348 17.708C88.0036 18.61 87.487 19.2906 86.7982 19.7498C86.1094 20.209 85.2483 20.4386 84.2151 20.4386H84.0675Z" fill="#787882"/>
<path d="M99.5333 20.4632C98.5985 20.4632 97.7374 20.291 96.9502 19.9466C96.163 19.6022 95.4824 19.1184 94.9083 18.4952C94.3343 17.872 93.8915 17.1503 93.5799 16.3303C93.2683 15.4939 93.1125 14.5919 93.1125 13.6242V13.1076C93.1125 12.1564 93.2601 11.2626 93.5553 10.4262C93.8669 9.58973 94.2933 8.8599 94.8345 8.23668C95.3922 7.61347 96.0564 7.12965 96.8272 6.78524C97.6144 6.42443 98.4837 6.24403 99.4349 6.24403C100.485 6.24403 101.403 6.47363 102.19 6.93285C102.994 7.37566 103.633 8.04808 104.109 8.95011C104.585 9.85213 104.847 10.9838 104.896 12.345L103.888 11.1642V2.0619H107.307V20.0204H104.601V14.3377H105.191C105.142 15.6989 104.863 16.8387 104.355 17.7572C103.847 18.6592 103.174 19.3398 102.338 19.799C101.518 20.2418 100.583 20.4632 99.5333 20.4632ZM100.296 17.585C100.968 17.585 101.583 17.4374 102.141 17.1421C102.699 16.8305 103.141 16.3877 103.469 15.8137C103.814 15.2233 103.986 14.5345 103.986 13.7472V12.7632C103.986 11.976 103.814 11.32 103.469 10.7952C103.125 10.2539 102.674 9.84393 102.116 9.56512C101.559 9.26992 100.952 9.12231 100.296 9.12231C99.5579 9.12231 98.9019 9.30272 98.3279 9.66353C97.7702 10.0079 97.3274 10.5 96.9994 11.1396C96.6878 11.7792 96.532 12.5254 96.532 13.3782C96.532 14.2311 96.696 14.9773 97.024 15.6169C97.352 16.2401 97.7948 16.7239 98.3525 17.0683C98.9265 17.4128 99.5743 17.585 100.296 17.585Z" fill="#787882"/>
<path d="M25.6927 21.9091C24.5113 21.9091 23.7833 21.3636 22.594 20.7212C21.4047 20.0788 17.9651 17.4923 17.9651 14.2727C17.9651 12.0886 17.4021 10.3221 16.4433 8.91421C15.4916 7.5172 14.2023 6.54933 12.8611 5.86609C12.2148 5.5369 11.5422 5.26773 10.8724 5.04525C10.482 4.91563 10.2554 4.49642 10.4248 4.1216C11.4985 1.74465 13.8896 0.0908813 16.6673 0.0908813C20.4484 0.0908813 23.5138 3.15604 23.5138 6.93729C23.5138 7.74624 23.3735 8.52252 23.1159 9.24287C24.2071 8.50743 25.5219 8.07828 26.9369 8.07828C30.7179 8.07828 33.7833 11.1434 33.7833 14.9247C33.7833 19.4767 29.7833 21.9091 25.6927 21.9091Z" fill="#787882"/>
<path d="M0.692383 14.3542C0.692383 17.963 3.07164 20.97 6.22363 21.6344C6.71014 21.8121 7.23535 21.9091 7.78329 21.9091H18.4205C18.7773 21.9091 18.9326 21.432 18.6602 21.2015C16.8012 19.6285 15.4197 17.4117 15.4197 14.2727C15.4197 12.5479 14.9829 11.2917 14.3394 10.3473C13.6887 9.39202 12.7733 8.67806 11.7057 8.13403C10.6281 7.5852 9.45819 7.23559 8.341 6.98772C8.07786 6.95452 7.8101 6.93729 7.5388 6.93729C3.75755 6.93729 0.692383 10.258 0.692383 14.3542Z" fill="#787882"/>
</svg>
