<svg xmlns="http://www.w3.org/2000/svg" width="209.16" height="53.844" viewBox="0 0 209.16 53.844">
  <g id="Group_3" data-name="Group 3" transform="translate(-1245 -1424.364)">
    <path id="Path_39" data-name="Path 39" d="M39.74,122.29h4.193a4.281,4.281,0,0,1,1.971.471,3.575,3.575,0,0,1,1.442,1.324,3.718,3.718,0,0,1,0,3.825,3.793,3.793,0,0,1-1.442,1.324,4.281,4.281,0,0,1-1.971.471H41.638v4.708h-1.9V122.3Zm4.237,5.62a2.034,2.034,0,0,0,1.089-.28,1.907,1.907,0,0,0,.691-.721,1.885,1.885,0,0,0,0-1.824,1.772,1.772,0,0,0-.691-.706,2.131,2.131,0,0,0-1.089-.265H41.638v3.81h2.339Zm5.5-5.62h4.266a4.3,4.3,0,0,1,1.986.471,3.407,3.407,0,0,1,1.412,1.324A3.65,3.65,0,0,1,57.658,126a3.339,3.339,0,0,1-.78,2.163,3.737,3.737,0,0,1-1.971,1.265v.088l3.3,4.781v.1H56L52.8,129.66H51.376V134.4h-1.9V122.29Zm4.207,5.62a2.048,2.048,0,0,0,1.442-.544,1.792,1.792,0,0,0,.588-1.383,1.874,1.874,0,0,0-.235-.912,1.982,1.982,0,0,0-.677-.721,1.881,1.881,0,0,0-1.044-.28H51.376v3.84H53.7Zm5.8-5.62h7.356V124.1H61.38v3.354h4.928v1.795H61.38V132.6h5.458v1.809H59.482V122.3Zm9.371,0h2.574l3.487,9.194h.1L78.5,122.29h2.574V134.4H79.2v-6.782l.1-2.177h-.1L75.723,134.4H74.208l-3.472-8.959h-.1l.1,2.177V134.4H68.853V122.29Zm14.652,0h1.9V134.4h-1.9V122.29Zm4.31,0h7.356V124.1H89.714v3.354h4.928v1.795H89.714V132.6h5.458v1.809H87.816V122.3Zm9.371,0h4.266a4.3,4.3,0,0,1,1.986.471,3.407,3.407,0,0,1,1.412,1.324,3.649,3.649,0,0,1,.515,1.912,3.339,3.339,0,0,1-.78,2.163,3.737,3.737,0,0,1-1.971,1.265v.088l3.3,4.781v.1H103.7l-3.192-4.737H99.085V134.4h-1.9V122.29Zm4.207,5.62a2.048,2.048,0,0,0,1.442-.544,1.792,1.792,0,0,0,.588-1.383,1.873,1.873,0,0,0-.235-.912,1.982,1.982,0,0,0-.677-.721,1.881,1.881,0,0,0-1.045-.28H99.085v3.84h2.324Zm8.841,4.737,2.133-2.133c1.059-1.059,1.765-1.795,2.118-2.177a6.6,6.6,0,0,0,.971-1.236,2.3,2.3,0,0,0,.265-1.133,1.544,1.544,0,0,0-.515-1.147,1.9,1.9,0,0,0-1.368-.485,1.842,1.842,0,0,0-1.295.471,2.1,2.1,0,0,0-.647,1.074l-1.692-.691a3.537,3.537,0,0,1,.633-1.206,3.756,3.756,0,0,1,1.25-1,3.89,3.89,0,0,1,1.795-.412,4.212,4.212,0,0,1,1.957.441,3.25,3.25,0,0,1,1.795,2.928,3.983,3.983,0,0,1-.515,1.927,7.617,7.617,0,0,1-1.309,1.721c-.221.221-.794.78-1.706,1.692l-1.383,1.383.029.074H117.8v1.692h-7.532v-1.765Zm11.136,1.221a5.083,5.083,0,0,1-1.662-2.177,7.9,7.9,0,0,1-.588-3.075,7.763,7.763,0,0,1,.588-3.089,5.083,5.083,0,0,1,1.662-2.177,4.334,4.334,0,0,1,5,0,5.108,5.108,0,0,1,1.662,2.177,7.975,7.975,0,0,1,.588,3.089,7.691,7.691,0,0,1-.588,3.075,5.109,5.109,0,0,1-1.662,2.177,4.091,4.091,0,0,1-2.486.809,4.041,4.041,0,0,1-2.5-.809Zm4.016-1.53a3.756,3.756,0,0,0,1-1.545,6.4,6.4,0,0,0,.353-2.192,6.551,6.551,0,0,0-.353-2.207,3.616,3.616,0,0,0-1-1.545,2.3,2.3,0,0,0-1.515-.559,2.336,2.336,0,0,0-1.53.559,3.424,3.424,0,0,0-.986,1.545A6.871,6.871,0,0,0,121,128.6a6.344,6.344,0,0,0,.353,2.192,3.734,3.734,0,0,0,.986,1.545,2.307,2.307,0,0,0,3.045,0Zm4.384.294,2.133-2.133c1.059-1.059,1.765-1.795,2.118-2.177a6.6,6.6,0,0,0,.971-1.236,2.3,2.3,0,0,0,.265-1.133,1.544,1.544,0,0,0-.515-1.147,1.9,1.9,0,0,0-1.368-.485,1.842,1.842,0,0,0-1.295.471,2.1,2.1,0,0,0-.647,1.074l-1.692-.691a3.537,3.537,0,0,1,.633-1.206,3.757,3.757,0,0,1,1.25-1,3.89,3.89,0,0,1,1.795-.412,4.212,4.212,0,0,1,1.957.441,3.249,3.249,0,0,1,1.795,2.928,3.983,3.983,0,0,1-.515,1.927,7.617,7.617,0,0,1-1.309,1.721c-.221.221-.794.78-1.706,1.692l-1.383,1.383.029.074h5.046v1.692H129.8v-1.765Zm10.254,1.28a3.808,3.808,0,0,1-1.545-2.207L140.2,131a2.559,2.559,0,0,0,.824,1.383,2.112,2.112,0,0,0,1.412.485,2.23,2.23,0,0,0,1.456-.515,1.611,1.611,0,0,0,.6-1.309,1.637,1.637,0,0,0-.647-1.324,2.523,2.523,0,0,0-1.6-.515h-1V127.5h.9a2.2,2.2,0,0,0,1.4-.441,1.449,1.449,0,0,0,.559-1.221,1.336,1.336,0,0,0-.5-1.1,1.938,1.938,0,0,0-1.28-.412,1.668,1.668,0,0,0-1.206.412,2.316,2.316,0,0,0-.647,1l-1.706-.706a3.841,3.841,0,0,1,1.25-1.706,3.617,3.617,0,0,1,2.339-.736,4.12,4.12,0,0,1,1.883.412,3.084,3.084,0,0,1,1.309,1.133,2.935,2.935,0,0,1,.471,1.618,2.654,2.654,0,0,1-.441,1.545,2.865,2.865,0,0,1-1.089.971v.1a3.249,3.249,0,0,1,1.383,1.089,2.777,2.777,0,0,1,.544,1.736A3.294,3.294,0,0,1,145.9,133a3.587,3.587,0,0,1-1.427,1.25,4.4,4.4,0,0,1-2.045.456,4.213,4.213,0,0,1-2.413-.75Z" transform="translate(1305.024 1343.502)" fill="#787882"/>
    <g id="Group_2" data-name="Group 2">
      <path id="Path_45" data-name="Path 45" d="M75.235,81.732h5.947a5.758,5.758,0,0,1,2.741.672,5.37,5.37,0,0,1,2.017,1.862,5.208,5.208,0,0,1,0,5.413,5.246,5.246,0,0,1-2.017,1.862,5.758,5.758,0,0,1-2.741.672H77.3v7.205H75.235V81.766Zm6,8.446a3.274,3.274,0,0,0,2.913-1.672,3.116,3.116,0,0,0,0-3.1,3.274,3.274,0,0,0-2.913-1.672H77.32V90.2h3.913Zm9.67,9.05a4.044,4.044,0,0,1-1.672-1.5,3.964,3.964,0,0,1-.586-2.155,3.674,3.674,0,0,1,1.5-3.12,6.223,6.223,0,0,1,3.792-1.12,8.916,8.916,0,0,1,2.1.241,5.953,5.953,0,0,1,1.5.569v-.758a2.852,2.852,0,0,0-.983-2.258,3.644,3.644,0,0,0-2.482-.845,4.316,4.316,0,0,0-1.948.448,3.561,3.561,0,0,0-1.4,1.276l-1.586-1.189a5.1,5.1,0,0,1,2.034-1.775,6.359,6.359,0,0,1,2.879-.638,5.759,5.759,0,0,1,4.034,1.345A4.7,4.7,0,0,1,99.557,91.4v7.964h-2V97.573h-.1a4.535,4.535,0,0,1-1.62,1.551,4.673,4.673,0,0,1-2.448.638,5.451,5.451,0,0,1-2.465-.534Zm4.637-1.844a4.159,4.159,0,0,0,1.448-1.448,3.82,3.82,0,0,0,.534-2,5.1,5.1,0,0,0-1.448-.638,6.983,6.983,0,0,0-1.827-.241,4.006,4.006,0,0,0-2.6.724,2.27,2.27,0,0,0-.879,1.844,2.034,2.034,0,0,0,.793,1.672,3.057,3.057,0,0,0,2,.638,3.743,3.743,0,0,0,1.965-.534Zm6.55-10.377h2v2h.1a3.4,3.4,0,0,1,1.5-1.724,4.506,4.506,0,0,1,2.31-.621,4.585,4.585,0,0,1,.914.069v2.137a4.91,4.91,0,0,0-1.138-.1,3.479,3.479,0,0,0-2.6,1.052,3.822,3.822,0,0,0-1,2.758v6.981h-2.1V86.989Zm12.756,12.515a3.707,3.707,0,0,1-1.1-.672,3.193,3.193,0,0,1-.741-1.1,4.039,4.039,0,0,1-.241-1.534v-7.5h-2.189v-1.9h2.189V83.266h2.086v3.551H117.9v1.9h-3.051v7a2.591,2.591,0,0,0,.4,1.569,1.692,1.692,0,0,0,1.362.552,2.571,2.571,0,0,0,1.379-.414v2.051a2.989,2.989,0,0,1-.758.241,5.156,5.156,0,0,1-.965.069,3.75,3.75,0,0,1-1.413-.259ZM120.311,86.8h2v1.844h.1a4.206,4.206,0,0,1,1.655-1.586,4.836,4.836,0,0,1,2.413-.655,4.422,4.422,0,0,1,3.465,1.31,5.145,5.145,0,0,1,1.189,3.585v8.067h-2.1v-7.74a3.28,3.28,0,0,0-.845-2.534A3.247,3.247,0,0,0,125.9,88.3a3.052,3.052,0,0,0-1.81.569,3.78,3.78,0,0,0-1.241,1.5A4.462,4.462,0,0,0,122.4,92.3v7.067h-2.1V86.8ZM136.5,98.9a5.924,5.924,0,0,1-2.224-2.379,7.22,7.22,0,0,1-.793-3.413,7.468,7.468,0,0,1,.758-3.361,6.123,6.123,0,0,1,2.137-2.448,5.6,5.6,0,0,1,3.206-.914,6.082,6.082,0,0,1,3.206.827,5.43,5.43,0,0,1,2.086,2.275,7.377,7.377,0,0,1,.724,3.327,2.332,2.332,0,0,1-.069.638H135.6a4.966,4.966,0,0,0,.689,2.413,4.033,4.033,0,0,0,1.569,1.482,4.28,4.28,0,0,0,1.982.5,4.107,4.107,0,0,0,3.723-2.275l1.775.862a6.352,6.352,0,0,1-2.206,2.413,6.66,6.66,0,0,1-6.585.017Zm6.861-7.154a4.326,4.326,0,0,0-.448-1.586,3.366,3.366,0,0,0-1.241-1.327,3.9,3.9,0,0,0-2.137-.534,3.5,3.5,0,0,0-2.5.948,4.492,4.492,0,0,0-1.345,2.5h7.671Zm4.637-4.947h2v2.017h.1a3.425,3.425,0,0,1,1.431-1.724,3.971,3.971,0,0,1,2.224-.69,3.557,3.557,0,0,1,1.482.276V88.92a4.009,4.009,0,0,0-1.775-.4,2.9,2.9,0,0,0-1.672.517,3.71,3.71,0,0,0-1.224,1.4,3.945,3.945,0,0,0-.448,1.9v7.033h-2.1V86.8Z" transform="translate(1298.925 1355.401)" fill="#787882"/>
      <g id="google-svgrepo-com" transform="translate(1244.256 1424.105)">
        <path id="Path_46" data-name="Path 46" d="M448.843,60.412l3.353,2.235A9.792,9.792,0,0,1,444.005,67a9.613,9.613,0,0,1-9.749-9.823c0-5.853,4.206-9.823,9.279-9.823,5.1,0,7.6,4.059,8.411,6.25l.441,1.118-13.146,5.441a4.982,4.982,0,0,0,4.764,2.97,5.6,5.6,0,0,0,4.838-2.72Zm-10.308-3.544,8.779-3.647a3.812,3.812,0,0,0-3.647-2.088,5.4,5.4,0,0,0-5.132,5.735Z" transform="translate(-331.181 -35.978)" fill="#787882"/>
        <path id="Path_47" data-name="Path 47" d="M407.407,4.931h4.235V33.694h-4.235V4.931Z" transform="translate(-310.669 -3.569)" fill="#787882"/>
        <path id="Path_48" data-name="Path 48" d="M331.439,48.071h4.088V65.54c0,7.249-4.279,10.235-9.338,10.235a9.356,9.356,0,0,1-8.705-5.808l3.75-1.559a5.445,5.445,0,0,0,4.956,3.5c3.25,0,5.25-2.015,5.25-5.779V64.717h-.147a6.746,6.746,0,0,1-5.176,2.235,9.84,9.84,0,0,1,0-19.66,6.853,6.853,0,0,1,5.176,2.191h.147V48.071Zm.294,9.088c0-3.47-2.309-6-5.25-6a5.688,5.688,0,0,0-5.47,6,5.635,5.635,0,0,0,5.47,5.911c2.941.015,5.25-2.485,5.25-5.911Z" transform="translate(-241.378 -35.931)" fill="#787882"/>
        <path id="Path_49" data-name="Path 49" d="M154.636,56.942a9.823,9.823,0,1,1-9.823-9.838,9.683,9.683,0,0,1,9.823,9.838Zm-4.294,0a5.544,5.544,0,1,0-11.058,0,5.544,5.544,0,1,0,11.058,0Z" transform="translate(-102.557 -35.788)" fill="#787882"/>
        <path id="Path_50" data-name="Path 50" d="M245.524,57.177a9.823,9.823,0,1,1-9.823-9.823,9.683,9.683,0,0,1,9.823,9.823Zm-4.309,0a5.544,5.544,0,1,0-11.058,0,5.544,5.544,0,1,0,11.058,0Z" transform="translate(-171.991 -35.978)" fill="#787882"/>
        <path id="Path_51" data-name="Path 51" d="M16.287,26.713A10.99,10.99,0,0,1,5.3,15.581,10.99,10.99,0,0,1,16.287,4.45a10.686,10.686,0,0,1,7.544,2.985l2.956-2.956a14.583,14.583,0,0,0-10.5-4.22A15.541,15.541,0,0,0,.744,15.581,15.541,15.541,0,0,0,16.287,30.9a14.044,14.044,0,0,0,10.69-4.294,13.818,13.818,0,0,0,3.617-9.793,16.568,16.568,0,0,0-.25-2.75H16.287v4.088H26.3a8.884,8.884,0,0,1-2.294,5.5,10.188,10.188,0,0,1-7.72,3.059Z" transform="translate(0 0)" fill="#787882"/>
      </g>
    </g>
  </g>
</svg>
