<svg width="135" height="34" viewBox="0 0 135 34" fill="none" xmlns="http://www.w3.org/2000/svg">
<path fill-rule="evenodd" clip-rule="evenodd" d="M33.9942 15.7022C34.6534 18.8468 34.3484 21.7717 33.2831 24.2108L33.3397 24.2099C32.4265 26.7094 29.3886 31.9391 22.2363 33.4388C21.9641 33.4958 21.6924 33.541 21.4212 33.575C20.7389 33.6753 20.031 33.7272 19.3004 33.7272C10.83 33.7272 2.50158 26.7547 0.698439 18.1535C-0.160448 14.0566 0.616096 10.3291 2.58037 7.54871C3.49275 5.79244 8.27942 1.53309 12.1422 0.705427C12.2467 0.683043 12.3472 0.665494 12.4438 0.652583C13.4647 0.403953 14.5537 0.272705 15.7001 0.272705C24.0172 0.272705 32.2077 7.18072 33.9942 15.7022ZM31.0834 14.9812C32.4859 21.6709 28.3273 27.094 21.7951 27.094C15.2628 27.094 8.83045 21.6709 7.42801 14.9812C6.02557 8.2914 10.1841 2.86829 16.7164 2.86829C23.2486 2.86829 29.681 8.2914 31.0834 14.9812ZM21.3809 23.3449C26.2159 23.3449 29.3139 19.4264 28.3006 14.5928C27.2873 9.75915 22.5463 5.8407 17.7113 5.8407C12.8764 5.8407 9.7783 9.75915 10.7916 14.5928C11.805 19.4264 16.5459 23.3449 21.3809 23.3449ZM25.7006 14.23C26.3363 17.2623 24.34 19.7204 21.2418 19.7204C18.1437 19.7204 15.1168 17.2623 14.4811 14.23C13.8454 11.1978 15.8416 8.73962 18.9398 8.73962C22.038 8.73962 25.0649 11.1978 25.7006 14.23ZM22.8573 14.2302C23.171 15.7267 22.1858 16.9399 20.6567 16.9399C19.1276 16.9399 17.6338 15.7267 17.32 14.2302C17.0063 12.7337 17.9915 11.5205 19.5206 11.5205C21.0497 11.5205 22.5435 12.7337 22.8573 14.2302Z" fill="#787882"/>
<path d="M56.4008 24.6664C56.4008 24.8589 56.5568 25.0149 56.7493 25.0149H59.3984C59.5909 25.0149 59.7469 24.8589 59.7469 24.6664V11.9436H56.7493C56.5568 11.9436 56.4008 12.0996 56.4008 12.292V24.6664Z" fill="#787882"/>
<path d="M56.5086 9.87332C56.8295 10.2103 57.319 10.3788 57.977 10.3788C58.635 10.3788 59.1164 10.2103 59.4213 9.87332C59.7263 9.52026 59.8787 9.08695 59.8787 8.57341C59.8787 8.02776 59.7263 7.58643 59.4213 7.24942C59.1164 6.9124 58.635 6.7439 57.977 6.7439C57.319 6.7439 56.8295 6.9124 56.5086 7.24942C56.2036 7.58643 56.0512 8.02776 56.0512 8.57341C56.0512 9.08695 56.2036 9.52026 56.5086 9.87332Z" fill="#787882"/>
<path fill-rule="evenodd" clip-rule="evenodd" d="M51.1263 18.9005C50.0992 19.3819 48.8474 19.6227 47.371 19.6227H44.723V24.6664C44.723 24.8589 44.567 25.0149 44.3745 25.0149H41.6532C41.4607 25.0149 41.3047 24.8589 41.3047 24.6664V7.67012C41.3047 7.47766 41.4607 7.32164 41.6532 7.32164H44.3745C44.4121 7.32164 44.4483 7.32759 44.4823 7.33862C44.5162 7.32759 44.5524 7.32164 44.59 7.32164H47.371C48.8474 7.32164 50.0992 7.56236 51.1263 8.04381C52.1694 8.52526 52.9638 9.21534 53.5095 10.114C54.0551 10.9967 54.3279 12.0479 54.3279 13.2675V13.6527C54.3279 14.8724 54.0551 15.9316 53.5095 16.8303C52.9638 17.7129 52.1694 18.403 51.1263 18.9005ZM49.3931 10.6918C48.9277 10.419 48.3499 10.2826 47.6598 10.2826H44.723V16.6618H47.6598C48.3499 16.6618 48.9277 16.5253 49.3931 16.2525C49.8745 15.9797 50.2356 15.6026 50.4763 15.1211C50.7331 14.6397 50.8615 14.086 50.8615 13.4601C50.8615 12.8342 50.7331 12.2806 50.4763 11.7991C50.2356 11.3177 49.8745 10.9486 49.3931 10.6918Z" fill="#787882"/>
<path d="M62.748 25.0149C62.5556 25.0149 62.3996 24.8589 62.3996 24.6664V12.292C62.3996 12.0996 62.5556 11.9436 62.748 11.9436H64.6991C64.8915 11.9436 65.0475 12.0996 65.0475 12.292V15.1647C65.1251 14.8294 65.2214 14.518 65.3364 14.2304C65.6895 13.3317 66.211 12.6577 66.9011 12.2083C67.6073 11.759 68.4819 11.5343 69.525 11.5343H69.6695C71.2262 11.5343 72.4057 12.0398 73.2081 13.0509C74.0105 14.0459 74.4118 15.5384 74.4118 17.5284V24.6664C74.4118 24.8589 74.2557 25.0149 74.0633 25.0149H71.4142C71.2217 25.0149 71.0657 24.8589 71.0657 24.6664V17.2395C71.0657 16.4371 70.833 15.7871 70.3676 15.2896C69.9182 14.7921 69.2923 14.5434 68.4899 14.5434C67.6714 14.5434 67.0054 14.8002 66.4919 15.3137C65.9944 15.8112 65.7456 16.4852 65.7456 17.3358V24.6664C65.7456 24.8589 65.5896 25.0149 65.3972 25.0149H62.748Z" fill="#787882"/>
<path fill-rule="evenodd" clip-rule="evenodd" d="M86.8919 18.9005C85.8648 19.3819 84.613 19.6227 83.1365 19.6227H80.4886V24.6664C80.4886 24.8589 80.3325 25.0149 80.1401 25.0149H77.4188C77.2263 25.0149 77.0703 24.8589 77.0703 24.6664V7.67012C77.0703 7.47766 77.2263 7.32164 77.4188 7.32164H80.1401C80.1777 7.32164 80.2139 7.32759 80.2478 7.33862C80.2818 7.32759 80.318 7.32164 80.3556 7.32164H83.1365C84.613 7.32164 85.8648 7.56236 86.8919 8.04381C87.935 8.52526 88.7294 9.21534 89.275 10.114C89.8207 10.9967 90.0935 12.0479 90.0935 13.2675V13.6527C90.0935 14.8724 89.8207 15.9316 89.275 16.8303C88.7294 17.7129 87.935 18.403 86.8919 18.9005ZM85.1586 10.6918C84.6932 10.419 84.1155 10.2826 83.4254 10.2826H80.4886V16.6618H83.4254C84.1155 16.6618 84.6932 16.5253 85.1586 16.2525C85.6401 15.9797 86.0012 15.6026 86.2419 15.1211C86.4987 14.6397 86.6271 14.086 86.6271 13.4601C86.6271 12.8342 86.4987 12.2806 86.2419 11.7991C86.0012 11.3177 85.6401 10.9486 85.1586 10.6918Z" fill="#787882"/>
<path fill-rule="evenodd" clip-rule="evenodd" d="M97.5413 25.4723C96.3858 25.4723 95.3668 25.2877 94.4841 24.9186C93.6015 24.5495 92.8552 24.052 92.2454 23.4261C91.6355 22.7842 91.1701 22.062 90.8492 21.2596C90.5442 20.4572 90.3918 19.6227 90.3918 18.7561V18.2505C90.3918 17.3518 90.5523 16.5013 90.8732 15.6989C91.2102 14.8804 91.6837 14.1582 92.2935 13.5323C92.9194 12.8904 93.6737 12.3929 94.5563 12.0398C95.439 11.6707 96.434 11.4862 97.5413 11.4862C98.6487 11.4862 99.6437 11.6707 100.526 12.0398C101.409 12.3929 102.155 12.8904 102.765 13.5323C103.391 14.1582 103.864 14.8804 104.185 15.6989C104.506 16.5013 104.667 17.3518 104.667 18.2505V18.7561C104.667 19.6227 104.506 20.4572 104.185 21.2596C103.88 22.062 103.423 22.7842 102.813 23.4261C102.203 24.052 101.457 24.5495 100.574 24.9186C99.6918 25.2877 98.6808 25.4723 97.5413 25.4723ZM97.5413 22.6077C98.3598 22.6077 99.0499 22.4311 99.6116 22.0781C100.173 21.709 100.599 21.2195 100.887 20.6096C101.176 19.9838 101.321 19.2776 101.321 18.4913C101.321 17.6889 101.168 16.9827 100.863 16.3729C100.574 15.747 100.141 15.2575 99.5634 14.9045C99.0017 14.5354 98.3277 14.3508 97.5413 14.3508C96.755 14.3508 96.0729 14.5354 95.4952 14.9045C94.9335 15.2575 94.5002 15.747 94.1952 16.3729C93.8903 16.9827 93.7379 17.6889 93.7379 18.4913C93.7379 19.2776 93.8823 19.9838 94.1712 20.6096C94.4761 21.2195 94.9094 21.709 95.4711 22.0781C96.0328 22.4311 96.7229 22.6077 97.5413 22.6077Z" fill="#787882"/>
<path d="M107.019 24.6664C107.019 24.8589 107.175 25.0149 107.367 25.0149H110.017C110.209 25.0149 110.365 24.8589 110.365 24.6664V11.9436H107.367C107.175 11.9436 107.019 12.0996 107.019 12.292V24.6664Z" fill="#787882"/>
<path d="M107.127 9.87332C107.448 10.2103 107.937 10.3788 108.595 10.3788C109.253 10.3788 109.735 10.2103 110.039 9.87332C110.344 9.52026 110.497 9.08695 110.497 8.57341C110.497 8.02776 110.344 7.58643 110.039 7.24942C109.735 6.9124 109.253 6.7439 108.595 6.7439C107.937 6.7439 107.448 6.9124 107.127 7.24942C106.822 7.58643 106.669 8.02776 106.669 8.57341C106.669 9.08695 106.822 9.52026 107.127 9.87332Z" fill="#787882"/>
<path d="M113.366 25.0149C113.174 25.0149 113.018 24.8589 113.018 24.6664V12.292C113.018 12.0996 113.174 11.9436 113.366 11.9436H115.317C115.51 11.9436 115.666 12.0996 115.666 12.292V15.1647C115.743 14.8294 115.84 14.518 115.955 14.2304C116.308 13.3317 116.829 12.6577 117.519 12.2083C118.225 11.759 119.1 11.5343 120.143 11.5343H120.288C121.844 11.5343 123.024 12.0398 123.826 13.0509C124.629 14.0459 125.03 15.5384 125.03 17.5284V24.6664C125.03 24.8589 124.874 25.0149 124.681 25.0149H122.032C121.84 25.0149 121.684 24.8589 121.684 24.6664V17.2395C121.684 16.4371 121.451 15.7871 120.986 15.2896C120.536 14.7921 119.91 14.5434 119.108 14.5434C118.29 14.5434 117.624 14.8002 117.11 15.3137C116.613 15.8112 116.364 16.4852 116.364 17.3358V24.6664C116.364 24.8589 116.208 25.0149 116.015 25.0149H113.366Z" fill="#787882"/>
<path d="M130.12 24.726C130.906 25.031 131.901 25.1834 133.105 25.1834H134.634C134.826 25.1834 134.982 25.0274 134.982 24.8349V22.6673C134.982 22.4748 134.826 22.3188 134.634 22.3188H132.936C132.294 22.3188 131.797 22.1503 131.444 21.8133C131.107 21.4602 130.938 20.9627 130.938 20.3208L130.95 14.3989H134.634C134.826 14.3989 134.982 14.2429 134.982 14.0505V12.292C134.982 12.0996 134.826 11.9436 134.634 11.9436H130.955L130.962 8.60964C130.962 8.41691 130.806 8.26046 130.613 8.26046H128.181C127.988 8.26046 127.833 8.41605 127.832 8.60824L127.825 11.9436H126.087C125.895 11.9436 125.739 12.0996 125.739 12.292V14.0505C125.739 14.2429 125.895 14.3989 126.087 14.3989H127.82L127.809 20.1041C127.809 21.3719 128.001 22.383 128.387 23.1373C128.772 23.8755 129.349 24.4051 130.12 24.726Z" fill="#787882"/>
</svg>
