<svg width="128" height="36" viewBox="0 0 128 36" fill="none" xmlns="http://www.w3.org/2000/svg">
<path d="M16.1983 35.4546H4.83894L16.1983 18.2771H27.5576L16.1983 35.4546Z" fill="#787882"/>
<path d="M12.0436 0.545471H23.68L12.0436 18.2771H0.407227L12.0436 0.545471Z" fill="#787882"/>
<path d="M50.7362 15.4889C50.7362 16.5423 50.4823 17.5299 49.9744 18.4517C49.4853 19.3734 48.7047 20.1164 47.6324 20.6808C46.579 21.2451 45.2434 21.5273 43.6257 21.5273H40.3243V29.0893H36.374V9.39415H43.6257C45.1494 9.39415 46.4473 9.65751 47.5196 10.1842C48.5918 10.7109 49.3913 11.4351 49.918 12.3569C50.4635 13.2786 50.7362 14.3226 50.7362 15.4889ZM43.4564 18.3388C44.5474 18.3388 45.3563 18.0943 45.883 17.6052C46.4097 17.0973 46.6731 16.3919 46.6731 15.4889C46.6731 13.5702 45.6008 12.6108 43.4564 12.6108H40.3243V18.3388H43.4564Z" fill="#787882"/>
<path d="M56.3626 15.884C56.8705 15.0563 57.5289 14.4073 58.3377 13.937C59.1654 13.4667 60.106 13.2316 61.1594 13.2316V17.3794H60.1154C58.8738 17.3794 57.9333 17.671 57.2937 18.2541C56.673 18.8373 56.3626 19.8531 56.3626 21.3015V29.0893H52.4123V13.4573H56.3626V15.884Z" fill="#787882"/>
<path d="M69.6327 29.3432C68.1278 29.3432 66.7735 29.0141 65.5695 28.3557C64.3656 27.6785 63.4157 26.7285 62.7197 25.5058C62.0425 24.2831 61.7039 22.8723 61.7039 21.2733C61.7039 19.6744 62.0519 18.2636 62.7479 17.0408C63.4627 15.8181 64.4315 14.8776 65.6542 14.2192C66.8769 13.542 68.2407 13.2034 69.7456 13.2034C71.2505 13.2034 72.6143 13.542 73.837 14.2192C75.0597 14.8776 76.0191 15.8181 76.7151 17.0408C77.4299 18.2636 77.7873 19.6744 77.7873 21.2733C77.7873 22.8723 77.4205 24.2831 76.6869 25.5058C75.972 26.7285 74.9939 27.6785 73.7523 28.3557C72.5296 29.0141 71.1564 29.3432 69.6327 29.3432ZM69.6327 25.9008C70.3475 25.9008 71.0153 25.7315 71.6361 25.3929C72.2757 25.0355 72.7836 24.5088 73.1598 23.8128C73.536 23.1168 73.7241 22.2703 73.7241 21.2733C73.7241 19.7872 73.3291 18.6492 72.539 17.8591C71.7678 17.0502 70.8178 16.6458 69.6892 16.6458C68.5605 16.6458 67.6105 17.0502 66.8393 17.8591C66.0869 18.6492 65.7106 19.7872 65.7106 21.2733C65.7106 22.7594 66.0774 23.9069 66.8111 24.7157C67.5635 25.5058 68.5041 25.9008 69.6327 25.9008Z" fill="#787882"/>
<path d="M83.5067 25.9573H87.7488V29.0893H79.5564V6.96753H83.5067V25.9573Z" fill="#787882"/>
<path d="M90.8132 11.595C90.1172 11.595 89.5341 11.3787 89.0638 10.9461C88.6123 10.4946 88.3866 9.93967 88.3866 9.28129C88.3866 8.6229 88.6123 8.07738 89.0638 7.64473C89.5341 7.19326 90.1172 6.96753 90.8132 6.96753C91.5092 6.96753 92.083 7.19326 92.5344 7.64473C93.0047 8.07738 93.2398 8.6229 93.2398 9.28129C93.2398 9.93967 93.0047 10.4946 92.5344 10.9461C92.083 11.3787 91.5092 11.595 90.8132 11.595ZM92.7602 13.4573V29.0893H88.8098V13.4573H92.7602Z" fill="#787882"/>
<path d="M104.197 13.2316C106.059 13.2316 107.564 13.8241 108.712 15.0092C109.859 16.1755 110.433 17.8121 110.433 19.9189V29.0893H106.482V20.455C106.482 19.2135 106.172 18.2636 105.551 17.6052C104.931 16.928 104.084 16.5894 103.012 16.5894C101.921 16.5894 101.055 16.928 100.416 17.6052C99.7951 18.2636 99.4847 19.2135 99.4847 20.455V29.0893H95.5344V13.4573H99.4847V15.4043C100.011 14.7271 100.679 14.2004 101.488 13.8242C102.316 13.4291 103.219 13.2316 104.197 13.2316Z" fill="#787882"/>
<path d="M127.592 20.9347C127.592 21.4991 127.555 22.0069 127.479 22.4584H116.052C116.146 23.5871 116.541 24.4712 117.237 25.1108C117.933 25.7503 118.789 26.0701 119.804 26.0701C121.272 26.0701 122.316 25.44 122.936 24.1796H127.197C126.746 25.6845 125.88 26.926 124.601 27.9042C123.322 28.8636 121.751 29.3432 119.889 29.3432C118.384 29.3432 117.03 29.0141 115.826 28.3557C114.641 27.6785 113.71 26.7285 113.032 25.5058C112.374 24.2831 112.045 22.8723 112.045 21.2733C112.045 19.6556 112.374 18.2353 113.032 17.0126C113.691 15.7899 114.613 14.8494 115.798 14.191C116.983 13.5326 118.347 13.2034 119.889 13.2034C121.375 13.2034 122.701 13.5232 123.868 14.1627C125.053 14.8023 125.965 15.7147 126.605 16.8998C127.263 18.066 127.592 19.411 127.592 20.9347ZM123.501 19.8061C123.482 18.7903 123.115 17.9814 122.4 17.3794C121.685 16.7587 120.811 16.4483 119.776 16.4483C118.798 16.4483 117.97 16.7493 117.293 17.3512C116.635 17.9344 116.23 18.7526 116.08 19.8061H123.501Z" fill="#787882"/>
</svg>
